<?xml version="1.0" encoding="UTF-8"?>
<svg xmlns="http://www.w3.org/2000/svg" xmlns:xlink="http://www.w3.org/1999/xlink" width="106.182pt" height="92.512pt" viewBox="0 0 106.182 92.512" version="1.2">
<defs>
<clipPath id="clip1">
  <path d="M 91 30 L 105.773438 30 L 105.773438 45 L 91 45 Z M 91 30 "/>
</clipPath>
<clipPath id="clip2">
  <path d="M 85 24 L 105.773438 24 L 105.773438 51 L 85 51 Z M 85 24 "/>
</clipPath>
<clipPath id="clip3">
  <path d="M 25 77 L 41 77 L 41 92.269531 L 25 92.269531 Z M 25 77 "/>
</clipPath>
<clipPath id="clip4">
  <path d="M 20 72 L 46 72 L 46 92.269531 L 20 92.269531 Z M 20 72 "/>
</clipPath>
<clipPath id="clip5">
  <path d="M 75 77 L 91 77 L 91 92.269531 L 75 92.269531 Z M 75 77 "/>
</clipPath>
<clipPath id="clip6">
  <path d="M 70 72 L 96 72 L 96 92.269531 L 70 92.269531 Z M 70 72 "/>
</clipPath>
</defs>
<g id="surface1">
<g clip-path="url(#clip1)" clip-rule="nonzero">
<path style=" stroke:none;fill-rule:nonzero;fill:rgb(100%,0%,0%);fill-opacity:1;" d="M 105.5625 37.441406 C 105.5625 33.527344 102.390625 30.355469 98.476562 30.355469 C 94.5625 30.355469 91.390625 33.527344 91.390625 37.441406 C 91.390625 41.355469 94.5625 44.527344 98.476562 44.527344 C 102.390625 44.527344 105.5625 41.355469 105.5625 37.441406 Z M 105.5625 37.441406 "/>
</g>
<g clip-path="url(#clip2)" clip-rule="nonzero">
<path style="fill:none;stroke-width:0.3985;stroke-linecap:butt;stroke-linejoin:miter;stroke:rgb(0%,0%,0%);stroke-opacity:1;stroke-miterlimit:10;" d="M 47.5245 13.138594 C 47.5245 17.052656 44.352625 20.224531 40.438562 20.224531 C 36.5245 20.224531 33.352625 17.052656 33.352625 13.138594 C 33.352625 9.224531 36.5245 6.052656 40.438562 6.052656 C 44.352625 6.052656 47.5245 9.224531 47.5245 13.138594 Z M 47.5245 13.138594 " transform="matrix(1,0,0,-1,58.038,50.58)"/>
</g>
<path style="fill-rule:nonzero;fill:rgb(0%,100%,0%);fill-opacity:1;stroke-width:0.3985;stroke-linecap:butt;stroke-linejoin:miter;stroke:rgb(0%,0%,0%);stroke-opacity:1;stroke-miterlimit:10;" d="M 7.087 42.521406 C 7.087 46.435469 3.915125 49.607344 0.0010625 49.607344 C -3.913 49.607344 -7.084875 46.435469 -7.084875 42.521406 C -7.084875 38.607344 -3.913 35.431562 0.0010625 35.431562 C 3.915125 35.431562 7.087 38.607344 7.087 42.521406 Z M 7.087 42.521406 " transform="matrix(1,0,0,-1,58.038,50.58)"/>
<path style="fill-rule:nonzero;fill:rgb(19.999695%,19.999695%,100%);fill-opacity:1;stroke-width:0.3985;stroke-linecap:butt;stroke-linejoin:miter;stroke:rgb(0%,0%,0%);stroke-opacity:1;stroke-miterlimit:10;" d="M -33.354406 13.138594 C -33.354406 17.052656 -36.526281 20.224531 -40.440344 20.224531 C -44.354406 20.224531 -47.526281 17.052656 -47.526281 13.138594 C -47.526281 9.224531 -44.354406 6.052656 -40.440344 6.052656 C -36.526281 6.052656 -33.354406 9.224531 -33.354406 13.138594 Z M -33.354406 13.138594 " transform="matrix(1,0,0,-1,58.038,50.58)"/>
<g clip-path="url(#clip3)" clip-rule="nonzero">
<path style=" stroke:none;fill-rule:nonzero;fill:rgb(100%,94.898987%,0%);fill-opacity:1;" d="M 40.132812 84.980469 C 40.132812 81.066406 36.960938 77.894531 33.046875 77.894531 C 29.132812 77.894531 25.957031 81.066406 25.957031 84.980469 C 25.957031 88.894531 29.132812 92.066406 33.046875 92.066406 C 36.960938 92.066406 40.132812 88.894531 40.132812 84.980469 Z M 40.132812 84.980469 "/>
</g>
<g clip-path="url(#clip4)" clip-rule="nonzero">
<path style="fill:none;stroke-width:0.3985;stroke-linecap:butt;stroke-linejoin:miter;stroke:rgb(0%,0%,0%);stroke-opacity:1;stroke-miterlimit:10;" d="M -17.905188 -34.400469 C -17.905188 -30.486406 -21.077063 -27.314531 -24.991125 -27.314531 C -28.905188 -27.314531 -32.080969 -30.486406 -32.080969 -34.400469 C -32.080969 -38.314531 -28.905188 -41.486406 -24.991125 -41.486406 C -21.077063 -41.486406 -17.905188 -38.314531 -17.905188 -34.400469 Z M -17.905188 -34.400469 " transform="matrix(1,0,0,-1,58.038,50.58)"/>
</g>
<g clip-path="url(#clip5)" clip-rule="nonzero">
<path style=" stroke:none;fill-rule:nonzero;fill:rgb(100%,50%,0%);fill-opacity:1;" d="M 90.117188 84.980469 C 90.117188 81.066406 86.945312 77.894531 83.03125 77.894531 C 79.117188 77.894531 75.945312 81.066406 75.945312 84.980469 C 75.945312 88.894531 79.117188 92.066406 83.03125 92.066406 C 86.945312 92.066406 90.117188 88.894531 90.117188 84.980469 Z M 90.117188 84.980469 "/>
</g>
<g clip-path="url(#clip6)" clip-rule="nonzero">
<path style="fill:none;stroke-width:0.3985;stroke-linecap:butt;stroke-linejoin:miter;stroke:rgb(0%,0%,0%);stroke-opacity:1;stroke-miterlimit:10;" d="M 32.079187 -34.400469 C 32.079187 -30.486406 28.907312 -27.314531 24.99325 -27.314531 C 21.079187 -27.314531 17.907312 -30.486406 17.907312 -34.400469 C 17.907312 -38.314531 21.079187 -41.486406 24.99325 -41.486406 C 28.907312 -41.486406 32.079187 -38.314531 32.079187 -34.400469 Z M 32.079187 -34.400469 " transform="matrix(1,0,0,-1,58.038,50.58)"/>
</g>
<path style="fill-rule:nonzero;fill:rgb(50%,50%,50%);fill-opacity:1;stroke-width:0.3985;stroke-linecap:butt;stroke-linejoin:miter;stroke:rgb(0%,0%,0%);stroke-opacity:1;stroke-miterlimit:10;" d="M 7.087 0.001875 C 7.087 3.912031 3.915125 7.087812 0.0010625 7.087812 C -3.913 7.087812 -7.084875 3.912031 -7.084875 0.001875 C -7.084875 -3.912188 -3.913 -7.087969 0.0010625 -7.087969 C 3.915125 -7.087969 7.087 -3.912188 7.087 0.001875 Z M 7.087 0.001875 " transform="matrix(1,0,0,-1,58.038,50.58)"/>
<path style="fill:none;stroke-width:0.3985;stroke-linecap:butt;stroke-linejoin:miter;stroke:rgb(0%,0%,0%);stroke-opacity:1;stroke-miterlimit:10;" d="M 6.93075 2.251875 L 33.508875 10.888594 " transform="matrix(1,0,0,-1,58.038,50.58)"/>
<path style="fill:none;stroke-width:0.3985;stroke-linecap:butt;stroke-linejoin:miter;stroke:rgb(0%,0%,0%);stroke-opacity:1;stroke-miterlimit:10;" d="M 0.0010625 7.287031 L 0.0010625 35.232344 " transform="matrix(1,0,0,-1,58.038,50.58)"/>
<path style="fill:none;stroke-width:0.3985;stroke-linecap:butt;stroke-linejoin:miter;stroke:rgb(0%,0%,0%);stroke-opacity:1;stroke-miterlimit:10;" d="M -6.928625 2.251875 L -33.510656 10.888594 " transform="matrix(1,0,0,-1,58.038,50.58)"/>
<path style="fill:none;stroke-width:0.3985;stroke-linecap:butt;stroke-linejoin:miter;stroke:rgb(0%,0%,0%);stroke-opacity:1;stroke-miterlimit:10;" d="M -4.284094 -5.892656 L -20.709875 -28.505938 " transform="matrix(1,0,0,-1,58.038,50.58)"/>
<path style="fill:none;stroke-width:0.3985;stroke-linecap:butt;stroke-linejoin:miter;stroke:rgb(0%,0%,0%);stroke-opacity:1;stroke-miterlimit:10;" d="M 4.282312 -5.892656 L 20.712 -28.505938 " transform="matrix(1,0,0,-1,58.038,50.58)"/>
<path style="fill:none;stroke-width:0.3985;stroke-linecap:butt;stroke-linejoin:miter;stroke:rgb(0%,0%,0%);stroke-opacity:1;stroke-miterlimit:10;" d="M 34.544031 17.42375 L 5.895594 38.23625 " transform="matrix(1,0,0,-1,58.038,50.58)"/>
<path style="fill:none;stroke-width:0.3985;stroke-linecap:butt;stroke-linejoin:miter;stroke:rgb(0%,0%,0%);stroke-opacity:1;stroke-miterlimit:10;" d="M -5.893469 38.23625 L -34.545813 17.42375 " transform="matrix(1,0,0,-1,58.038,50.58)"/>
<path style="fill:none;stroke-width:0.3985;stroke-linecap:butt;stroke-linejoin:miter;stroke:rgb(0%,0%,0%);stroke-opacity:1;stroke-miterlimit:10;" d="M -17.705969 -34.400469 L 17.708094 -34.400469 " transform="matrix(1,0,0,-1,58.038,50.58)"/>
<path style="fill:none;stroke-width:0.3985;stroke-linecap:butt;stroke-linejoin:miter;stroke:rgb(0%,0%,0%);stroke-opacity:1;stroke-miterlimit:10;" d="M -6.764563 39.814375 C -70.866125 14.17375 -70.866125 14.17375 -29.995031 -29.103594 " transform="matrix(1,0,0,-1,58.038,50.58)"/>
</g>
</svg>
