<?xml version="1.0" encoding="UTF-8"?>
<svg xmlns="http://www.w3.org/2000/svg" xmlns:xlink="http://www.w3.org/1999/xlink" width="408.816pt" height="69.454pt" viewBox="0 0 408.816 69.454" version="1.2">
<defs>
<clipPath id="clip1">
  <path d="M 0 0 L 74 0 L 74 69.179688 L 0 69.179688 Z M 0 0 "/>
</clipPath>
<clipPath id="clip2">
  <path d="M 85 9.445312 L 154 9.445312 L 154 60.472656 L 85 60.472656 Z M 85 9.445312 "/>
</clipPath>
<clipPath id="clip3">
  <path d="M 79 9.445312 L 159 9.445312 L 159 60.472656 L 79 60.472656 Z M 79 9.445312 "/>
</clipPath>
<clipPath id="clip4">
  <path d="M 170 9.445312 L 239 9.445312 L 239 60.472656 L 170 60.472656 Z M 170 9.445312 "/>
</clipPath>
<clipPath id="clip5">
  <path d="M 169 9.445312 L 240 9.445312 L 240 60.472656 L 169 60.472656 Z M 169 9.445312 "/>
</clipPath>
<clipPath id="clip6">
  <path d="M 258 9.445312 L 329 9.445312 L 329 60.472656 L 258 60.472656 Z M 258 9.445312 "/>
</clipPath>
<clipPath id="clip7">
  <path d="M 337 9.445312 L 408.722656 9.445312 L 408.722656 60.472656 L 337 60.472656 Z M 337 9.445312 "/>
</clipPath>
</defs>
<g id="surface1">
<g clip-path="url(#clip1)" clip-rule="nonzero">
<path style="fill:none;stroke-width:0.3985;stroke-linecap:butt;stroke-linejoin:miter;stroke:rgb(9.999084%,9.999084%,100%);stroke-opacity:1;stroke-miterlimit:10;" d="M 34.01625 -0.0019375 C 34.01625 18.787125 18.785781 34.013688 0.000625 34.013688 C -18.788437 34.013688 -34.015 18.787125 -34.015 -0.0019375 C -34.015 -18.787094 -18.788437 -34.017562 0.000625 -34.017562 C 18.785781 -34.017562 34.01625 -18.787094 34.01625 -0.0019375 Z M 34.01625 -0.0019375 " transform="matrix(1,0,0,-1,34.14,34.959)"/>
</g>
<g clip-path="url(#clip2)" clip-rule="nonzero">
<path style=" stroke:none;fill-rule:nonzero;fill:rgb(100%,9.999084%,9.999084%);fill-opacity:1;" d="M 153.195312 34.960938 C 153.195312 16.171875 137.96875 0.945312 119.179688 0.945312 C 100.394531 0.945312 85.164062 16.171875 85.164062 34.960938 C 85.164062 53.746094 100.394531 68.976562 119.179688 68.976562 C 137.96875 68.976562 153.195312 53.746094 153.195312 34.960938 Z M 153.195312 34.960938 "/>
</g>
<g clip-path="url(#clip3)" clip-rule="nonzero">
<path style="fill:none;stroke-width:0.3985;stroke-linecap:butt;stroke-linejoin:miter;stroke:rgb(100%,9.999084%,9.999084%);stroke-opacity:1;stroke-miterlimit:10;" d="M 119.055313 -0.0019375 C 119.055313 18.787125 103.82875 34.013688 85.039688 34.013688 C 66.254531 34.013688 51.024063 18.787125 51.024063 -0.0019375 C 51.024063 -18.787094 66.254531 -34.017562 85.039688 -34.017562 C 103.82875 -34.017562 119.055313 -18.787094 119.055313 -0.0019375 Z M 119.055313 -0.0019375 " transform="matrix(1,0,0,-1,34.14,34.959)"/>
</g>
<g clip-path="url(#clip4)" clip-rule="nonzero">
<path style=" stroke:none;fill-rule:nonzero;fill:rgb(79.998779%,79.998779%,79.998779%);fill-opacity:1;" d="M 170.207031 68.976562 L 170.207031 0.945312 L 238.238281 0.945312 L 238.238281 68.976562 Z M 170.207031 68.976562 "/>
</g>
<g clip-path="url(#clip5)" clip-rule="nonzero">
<path style="fill:none;stroke-width:1.59404;stroke-linecap:butt;stroke-linejoin:miter;stroke:rgb(0%,0%,0%);stroke-opacity:1;stroke-miterlimit:10;" d="M 136.067031 -34.017562 L 136.067031 34.013688 L 204.098281 34.013688 L 204.098281 -34.017562 Z M 136.067031 -34.017562 " transform="matrix(1,0,0,-1,34.14,34.959)"/>
</g>
<g clip-path="url(#clip6)" clip-rule="nonzero">
<path style="fill:none;stroke-width:0.3985;stroke-linecap:butt;stroke-linejoin:miter;stroke:rgb(0%,0%,0%);stroke-opacity:1;stroke-miterlimit:10;" d="M 229.61 -25.513656 L 229.61 34.013688 L 289.137344 -34.017562 L 289.137344 34.013688 " transform="matrix(1,0,0,-1,34.14,34.959)"/>
</g>
<g clip-path="url(#clip7)" clip-rule="nonzero">
<path style="fill:none;stroke-width:0.79701;stroke-linecap:butt;stroke-linejoin:miter;stroke:rgb(100%,50%,50%);stroke-opacity:1;stroke-miterlimit:10;" d="M 314.649063 -25.513656 L 314.649063 26.044938 C 314.649063 30.447281 317.000625 31.330094 319.899063 28.017594 L 368.930313 -28.017562 C 371.82875 -31.330062 374.176406 -30.44725 374.176406 -26.044906 L 374.176406 34.013688 " transform="matrix(1,0,0,-1,34.14,34.959)"/>
</g>
</g>
</svg>
