<?xml version="1.0" encoding="UTF-8"?>
<svg xmlns="http://www.w3.org/2000/svg" xmlns:xlink="http://www.w3.org/1999/xlink" width="329.076pt" height="92.25pt" viewBox="0 0 329.076 92.25" version="1.2">
<defs>
<clipPath id="clip1">
  <path d="M 0 57 L 35 57 L 35 91.875 L 0 91.875 Z M 0 57 "/>
</clipPath>
<clipPath id="clip2">
  <path d="M 0 34 L 57 34 L 57 91.875 L 0 91.875 Z M 0 34 "/>
</clipPath>
<clipPath id="clip3">
  <path d="M 59 57 L 94 57 L 94 91.875 L 59 91.875 Z M 59 57 "/>
</clipPath>
<clipPath id="clip4">
  <path d="M 36 34 L 116 34 L 116 91.875 L 36 91.875 Z M 36 34 "/>
</clipPath>
<clipPath id="clip5">
  <path d="M 117 57 L 152 57 L 152 91.875 L 117 91.875 Z M 117 57 "/>
</clipPath>
<clipPath id="clip6">
  <path d="M 95 34 L 175 34 L 175 91.875 L 95 91.875 Z M 95 34 "/>
</clipPath>
<clipPath id="clip7">
  <path d="M 176 57 L 211 57 L 211 91.875 L 176 91.875 Z M 176 57 "/>
</clipPath>
<clipPath id="clip8">
  <path d="M 153 34 L 233 34 L 233 91.875 L 153 91.875 Z M 153 34 "/>
</clipPath>
<clipPath id="clip9">
  <path d="M 235 57 L 270 57 L 270 91.875 L 235 91.875 Z M 235 57 "/>
</clipPath>
<clipPath id="clip10">
  <path d="M 212 34 L 292 34 L 292 91.875 L 212 91.875 Z M 212 34 "/>
</clipPath>
<clipPath id="clip11">
  <path d="M 261 0 L 328.613281 0 L 328.613281 57 L 261 57 Z M 261 0 "/>
</clipPath>
<clipPath id="clip12">
  <path d="M 293 57 L 328 57 L 328 91.875 L 293 91.875 Z M 293 57 "/>
</clipPath>
<clipPath id="clip13">
  <path d="M 271 34 L 328.613281 34 L 328.613281 91.875 L 271 91.875 Z M 271 34 "/>
</clipPath>
</defs>
<g id="surface1">
<path style="fill:none;stroke-width:1.59404;stroke-linecap:butt;stroke-linejoin:miter;stroke:rgb(0%,0%,0%);stroke-opacity:1;stroke-miterlimit:10;" d="M -8.505531 14.731469 L -8.505531 -14.729469 M -8.505531 -14.729469 L 17.010094 0.001 M 17.010094 0.001 L -8.505531 14.731469 " transform="matrix(1,0,0,-1,17.361,17.376)"/>
<g clip-path="url(#clip1)" clip-rule="nonzero">
<path style=" stroke:none;fill-rule:nonzero;fill:rgb(84.999084%,100%,84.999084%);fill-opacity:1;" d="M 34.371094 74.070312 C 34.371094 64.675781 26.753906 57.0625 17.359375 57.0625 C 7.96875 57.0625 0.351562 64.675781 0.351562 74.070312 C 0.351562 83.464844 7.96875 91.078125 17.359375 91.078125 C 26.753906 91.078125 34.371094 83.464844 34.371094 74.070312 Z M 34.371094 74.070312 "/>
</g>
<g clip-path="url(#clip2)" clip-rule="nonzero">
<path style="fill:none;stroke-width:1.59404;stroke-linecap:butt;stroke-linejoin:miter;stroke:rgb(84.999084%,100%,84.999084%);stroke-opacity:1;stroke-miterlimit:10;" d="M 17.010094 -56.694312 C 17.010094 -47.299781 9.392906 -39.6865 -0.001625 -39.6865 C -9.39225 -39.6865 -17.009437 -47.299781 -17.009437 -56.694312 C -17.009437 -66.088844 -9.39225 -73.702125 -0.001625 -73.702125 C 9.392906 -73.702125 17.010094 -66.088844 17.010094 -56.694312 Z M 17.010094 -56.694312 " transform="matrix(1,0,0,-1,17.361,17.376)"/>
</g>
<path style="fill:none;stroke-width:1.59404;stroke-linecap:butt;stroke-linejoin:miter;stroke:rgb(0%,0%,0%);stroke-opacity:1;stroke-miterlimit:10;" d="M 56.693688 17.008813 L 39.685875 0.001 M 39.685875 0.001 L 56.693688 -17.006812 M 56.693688 -17.006812 L 73.7015 0.001 M 73.7015 0.001 L 56.693688 17.008813 " transform="matrix(1,0,0,-1,17.361,17.376)"/>
<g clip-path="url(#clip3)" clip-rule="nonzero">
<path style=" stroke:none;fill-rule:nonzero;fill:rgb(69.999695%,100%,69.999695%);fill-opacity:1;" d="M 93.054688 74.070312 C 93.054688 64.675781 85.441406 57.0625 76.046875 57.0625 C 66.652344 57.0625 59.039062 64.675781 59.039062 74.070312 C 59.039062 83.464844 66.652344 91.078125 76.046875 91.078125 C 85.441406 91.078125 93.054688 83.464844 93.054688 74.070312 Z M 93.054688 74.070312 "/>
</g>
<g clip-path="url(#clip4)" clip-rule="nonzero">
<path style="fill:none;stroke-width:1.59404;stroke-linecap:butt;stroke-linejoin:miter;stroke:rgb(69.999695%,100%,69.999695%);stroke-opacity:1;stroke-miterlimit:10;" d="M 75.693688 -56.694312 C 75.693688 -47.299781 68.080406 -39.6865 58.685875 -39.6865 C 49.291344 -39.6865 41.678063 -47.299781 41.678063 -56.694312 C 41.678063 -66.088844 49.291344 -73.702125 58.685875 -73.702125 C 68.080406 -73.702125 75.693688 -66.088844 75.693688 -56.694312 Z M 75.693688 -56.694312 " transform="matrix(1,0,0,-1,17.361,17.376)"/>
</g>
<path style="fill:none;stroke-width:1.59404;stroke-linecap:butt;stroke-linejoin:miter;stroke:rgb(0%,0%,0%);stroke-opacity:1;stroke-miterlimit:10;" d="M 118.642906 16.176781 L 99.627281 9.997094 M 99.627281 9.997094 L 99.627281 -9.999 M 99.627281 -9.999 L 118.642906 -16.174781 M 118.642906 -16.174781 L 130.396813 0.001 M 130.396813 0.001 L 118.642906 16.176781 " transform="matrix(1,0,0,-1,17.361,17.376)"/>
<g clip-path="url(#clip5)" clip-rule="nonzero">
<path style=" stroke:none;fill-rule:nonzero;fill:rgb(54.998779%,100%,54.998779%);fill-opacity:1;" d="M 151.742188 74.070312 C 151.742188 64.675781 144.125 57.0625 134.734375 57.0625 C 125.339844 57.0625 117.726562 64.675781 117.726562 74.070312 C 117.726562 83.464844 125.339844 91.078125 134.734375 91.078125 C 144.125 91.078125 151.742188 83.464844 151.742188 74.070312 Z M 151.742188 74.070312 "/>
</g>
<g clip-path="url(#clip6)" clip-rule="nonzero">
<path style="fill:none;stroke-width:1.59404;stroke-linecap:butt;stroke-linejoin:miter;stroke:rgb(54.998779%,100%,54.998779%);stroke-opacity:1;stroke-miterlimit:10;" d="M 134.381188 -56.694312 C 134.381188 -47.299781 126.764 -39.6865 117.373375 -39.6865 C 107.978844 -39.6865 100.365563 -47.299781 100.365563 -56.694312 C 100.365563 -66.088844 107.978844 -73.702125 117.373375 -73.702125 C 126.764 -73.702125 134.381188 -66.088844 134.381188 -56.694312 Z M 134.381188 -56.694312 " transform="matrix(1,0,0,-1,17.361,17.376)"/>
</g>
<path style="fill:none;stroke-width:1.59404;stroke-linecap:butt;stroke-linejoin:miter;stroke:rgb(0%,0%,0%);stroke-opacity:1;stroke-miterlimit:10;" d="M 178.584313 14.731469 L 161.5765 14.731469 M 161.5765 14.731469 L 153.072594 0.001 M 153.072594 0.001 L 161.5765 -14.729469 M 161.5765 -14.729469 L 178.584313 -14.729469 M 178.584313 -14.729469 L 187.088219 0.001 M 187.088219 0.001 L 178.584313 14.731469 " transform="matrix(1,0,0,-1,17.361,17.376)"/>
<g clip-path="url(#clip7)" clip-rule="nonzero">
<path style=" stroke:none;fill-rule:nonzero;fill:rgb(39.99939%,100%,39.99939%);fill-opacity:1;" d="M 210.429688 74.070312 C 210.429688 64.675781 202.8125 57.0625 193.417969 57.0625 C 184.027344 57.0625 176.410156 64.675781 176.410156 74.070312 C 176.410156 83.464844 184.027344 91.078125 193.417969 91.078125 C 202.8125 91.078125 210.429688 83.464844 210.429688 74.070312 Z M 210.429688 74.070312 "/>
</g>
<g clip-path="url(#clip8)" clip-rule="nonzero">
<path style="fill:none;stroke-width:1.59404;stroke-linecap:butt;stroke-linejoin:miter;stroke:rgb(39.99939%,100%,39.99939%);stroke-opacity:1;stroke-miterlimit:10;" d="M 193.068688 -56.694312 C 193.068688 -47.299781 185.4515 -39.6865 176.056969 -39.6865 C 166.666344 -39.6865 159.049156 -47.299781 159.049156 -56.694312 C 159.049156 -66.088844 166.666344 -73.702125 176.056969 -73.702125 C 185.4515 -73.702125 193.068688 -66.088844 193.068688 -56.694312 Z M 193.068688 -56.694312 " transform="matrix(1,0,0,-1,17.361,17.376)"/>
</g>
<path style="fill:none;stroke-width:1.59404;stroke-linecap:butt;stroke-linejoin:miter;stroke:rgb(0%,0%,0%);stroke-opacity:1;stroke-miterlimit:10;" d="M 237.377281 13.297875 L 222.990563 16.583031 M 222.990563 16.583031 L 211.4515 7.379906 M 211.4515 7.379906 L 211.4515 -7.377906 M 211.4515 -7.377906 L 222.990563 -16.581031 M 222.990563 -16.581031 L 237.377281 -13.295875 M 237.377281 -13.295875 L 243.783531 0.001 M 243.783531 0.001 L 237.377281 13.297875 " transform="matrix(1,0,0,-1,17.361,17.376)"/>
<g clip-path="url(#clip9)" clip-rule="nonzero">
<path style=" stroke:none;fill-rule:nonzero;fill:rgb(25%,100%,25%);fill-opacity:1;" d="M 269.113281 74.070312 C 269.113281 64.675781 261.5 57.0625 252.105469 57.0625 C 242.710938 57.0625 235.097656 64.675781 235.097656 74.070312 C 235.097656 83.464844 242.710938 91.078125 252.105469 91.078125 C 261.5 91.078125 269.113281 83.464844 269.113281 74.070312 Z M 269.113281 74.070312 "/>
</g>
<g clip-path="url(#clip10)" clip-rule="nonzero">
<path style="fill:none;stroke-width:1.59404;stroke-linecap:butt;stroke-linejoin:miter;stroke:rgb(25%,100%,25%);stroke-opacity:1;stroke-miterlimit:10;" d="M 251.752281 -56.694312 C 251.752281 -47.299781 244.139 -39.6865 234.744469 -39.6865 C 225.349938 -39.6865 217.736656 -47.299781 217.736656 -56.694312 C 217.736656 -66.088844 225.349938 -73.702125 234.744469 -73.702125 C 244.139 -73.702125 251.752281 -66.088844 251.752281 -56.694312 Z M 251.752281 -56.694312 " transform="matrix(1,0,0,-1,17.361,17.376)"/>
</g>
<g clip-path="url(#clip11)" clip-rule="nonzero">
<path style="fill:none;stroke-width:1.59404;stroke-linecap:butt;stroke-linejoin:miter;stroke:rgb(0%,0%,0%);stroke-opacity:1;stroke-miterlimit:10;" d="M 295.494469 12.028344 L 283.467125 17.008813 M 283.467125 17.008813 L 271.439781 12.028344 M 271.439781 12.028344 L 266.459313 0.001 M 266.459313 0.001 L 271.439781 -12.026344 M 271.439781 -12.026344 L 283.467125 -17.006812 M 283.467125 -17.006812 L 295.494469 -12.026344 M 295.494469 -12.026344 L 300.474938 0.001 M 300.474938 0.001 L 295.494469 12.028344 " transform="matrix(1,0,0,-1,17.361,17.376)"/>
</g>
<g clip-path="url(#clip12)" clip-rule="nonzero">
<path style=" stroke:none;fill-rule:nonzero;fill:rgb(9.999084%,100%,9.999084%);fill-opacity:1;" d="M 327.800781 74.070312 C 327.800781 64.675781 320.183594 57.0625 310.792969 57.0625 C 301.398438 57.0625 293.785156 64.675781 293.785156 74.070312 C 293.785156 83.464844 301.398438 91.078125 310.792969 91.078125 C 320.183594 91.078125 327.800781 83.464844 327.800781 74.070312 Z M 327.800781 74.070312 "/>
</g>
<g clip-path="url(#clip13)" clip-rule="nonzero">
<path style="fill:none;stroke-width:1.59404;stroke-linecap:butt;stroke-linejoin:miter;stroke:rgb(9.999084%,100%,9.999084%);stroke-opacity:1;stroke-miterlimit:10;" d="M 310.439781 -56.694312 C 310.439781 -47.299781 302.822594 -39.6865 293.431969 -39.6865 C 284.037438 -39.6865 276.424156 -47.299781 276.424156 -56.694312 C 276.424156 -66.088844 284.037438 -73.702125 293.431969 -73.702125 C 302.822594 -73.702125 310.439781 -66.088844 310.439781 -56.694312 Z M 310.439781 -56.694312 " transform="matrix(1,0,0,-1,17.361,17.376)"/>
</g>
</g>
</svg>
